<?xml version="1.0" encoding="UTF-8"?>
<svg xmlns="http://www.w3.org/2000/svg" xmlns:xlink="http://www.w3.org/1999/xlink" width="375pt" height="374.999991pt" viewBox="0 0 375 374.999991" version="1.2">
<defs>
<clipPath id="clip1">
  <path d="M 0 0 L 374.101562 0 L 374.101562 374.101562 L 0 374.101562 Z M 0 0 "/>
</clipPath>
<clipPath id="clip2">
  <path d="M 24 116.589844 L 185 116.589844 L 185 256.875 L 24 256.875 Z M 24 116.589844 "/>
</clipPath>
<clipPath id="clip3">
  <path d="M 291 111.875 L 344 111.875 L 344 264.914062 L 291 264.914062 Z M 291 111.875 "/>
</clipPath>
<clipPath id="clip4">
  <path d="M 213 111.875 L 266 111.875 L 266 264.914062 L 213 264.914062 Z M 213 111.875 "/>
</clipPath>
</defs>
<g id="surface1">
<g clip-path="url(#clip1)" clip-rule="nonzero">
<path style=" stroke:none;fill-rule:nonzero;fill:rgb(36.859131%,9.01947%,92.158508%);fill-opacity:1;" d="M 93.523438 0 L 280.574219 0 C 332.234375 0 374.101562 41.867188 374.101562 93.523438 L 374.101562 280.574219 C 374.101562 332.234375 332.234375 374.101562 280.574219 374.101562 L 93.523438 374.101562 C 41.867188 374.101562 0 332.234375 0 280.574219 L 0 93.523438 C 0 41.867188 41.867188 0 93.523438 0 Z M 93.523438 0 "/>
</g>
<g clip-path="url(#clip2)" clip-rule="nonzero">
<path style=" stroke:none;fill-rule:nonzero;fill:rgb(100%,100%,100%);fill-opacity:1;" d="M 26.695312 134.875 L 94.613281 249.058594 C 97.109375 254.042969 100.355469 256.539062 103.601562 256.539062 C 106.847656 256.539062 110.09375 254.042969 112.589844 249.058594 L 182.503906 134.875 C 187.496094 125.152344 182.503906 116.925781 171.515625 116.925781 L 37.683594 116.925781 C 26.695312 116.925781 21.703125 124.90625 26.695312 134.875 Z M 26.695312 134.875 "/>
</g>
<g clip-path="url(#clip3)" clip-rule="nonzero">
<path style=" stroke:none;fill-rule:nonzero;fill:rgb(100%,100%,100%);fill-opacity:1;" d="M 334.972656 111.894531 L 300.75 111.894531 C 295.859375 111.894531 291.898438 115.898438 291.898438 120.835938 L 291.898438 255.949219 C 291.898438 260.886719 295.859375 264.890625 300.75 264.890625 L 334.972656 264.890625 C 339.859375 264.890625 343.820312 260.886719 343.820312 255.949219 L 343.820312 120.835938 C 343.820312 115.898438 339.859375 111.894531 334.972656 111.894531 Z M 334.972656 111.894531 "/>
</g>
<g clip-path="url(#clip4)" clip-rule="nonzero">
<path style=" stroke:none;fill-rule:nonzero;fill:rgb(100%,100%,100%);fill-opacity:1;" d="M 256.15625 111.894531 L 221.929688 111.894531 C 217.042969 111.894531 213.082031 115.898438 213.082031 120.835938 L 213.082031 255.953125 C 213.082031 260.890625 217.042969 264.890625 221.929688 264.890625 L 256.15625 264.890625 C 261.042969 264.890625 265.003906 260.890625 265.003906 255.953125 L 265.003906 120.835938 C 265.003906 115.898438 261.042969 111.894531 256.15625 111.894531 Z M 256.15625 111.894531 "/>
</g>
</g>
</svg>
